<?xml version="1.0"?>
<svg width="580" height="580" xmlns="http://www.w3.org/2000/svg" xmlns:svg="http://www.w3.org/2000/svg" version="1.0">
 <metadata id="metadata1976">image/svg+xmlen</metadata>

 <g class="layer">
  <title>Layer 1</title>
  <g id="g1327">
   <path d="m66.28,1.77c-41.34,0 -64.58,21.37 -64.58,65.03l0,450.13c0,40.84 20.9,62.23 62.2,62.23l452.02,0c41.31,0 62.23,-20.32 62.23,-62.23l0,-450.13c0,-42.6 -20.92,-65.03 -63.52,-65.03c-0.01,0 -448.5,-0.14 -448.36,0l0.01,0z" fill="#00007f" id="path1329" stroke="#eee" stroke-width="3.41"/>
  </g>
  <path d="m290.63,34.56c0.67,0 1.37,0.03 2.06,0.03c0.69,0 1.38,-0.03 2.06,-0.03l-4.12,0zm2.06,0.03c-48.03,0.38 -113.09,13.91 -140.25,25.22c-27.55,11.48 -45.92,22.96 -51.66,51.66l-20.65,159.09l0,219.19l35.59,0l0,34.38c0,41.91 61.31,41.91 61.31,0l0,-34.38l113.25,0l0.35,0l117.71,0l0,34.38c0,41.91 61.35,41.91 61.35,0l0,-34.38l35.59,0l0,-219.19l-20.65,-159.09c-5.74,-28.7 -24.11,-40.18 -51.66,-51.66c-27.16,-11.31 -92.26,-24.84 -140.28,-25.22zm-87.44,40.16l85.38,0l89.53,0c17.21,0 17.21,25.81 0,25.81l-89.72,0l-85.19,0c-17.22,0 -17.22,-25.81 0,-25.81zm-46.44,51.91l131.63,0l136.12,0c18.19,0 22.95,9.23 25.16,23.25l16.09,115.37c1.5,11.06 -1.72,22.03 -17,22.03l-160.18,0l-156.07,0c-15.28,0 -18.47,-10.97 -16.97,-22.03l16.1,-115.37c2.21,-14.02 6.93,-23.25 25.12,-23.25zm-12.4,235.53c16.24,0 29.4,13.19 29.4,29.44c0,16.24 -13.16,29.4 -29.4,29.4c-16.25,0 -29.44,-13.16 -29.44,-29.4c0,-16.25 13.19,-29.44 29.44,-29.44zm292.59,0c16.25,0 29.41,13.19 29.41,29.44c0,16.24 -13.16,29.4 -29.41,29.4c-16.25,0 -29.44,-13.16 -29.44,-29.4c0,-16.25 13.19,-29.44 29.44,-29.44z" fill="#ffffff" id="path2115"/>
  <g fill="#000000" id="g2117" transform="matrix(1.1975036,0,0,1.1975036,80.128205,34.575832)">
   <g fill="#000000" id="g2119">
    <g fill="#000000" id="g2121">
     <path fill="#000000" id="path2125"/>
    </g>
    <g fill="#000000" id="g2127">
     <path fill="#000000" id="path2131"/>
    </g>
   </g>
  </g>
 </g>
</svg>