<?xml version="1.0"?>
<svg width="580" height="580" xmlns="http://www.w3.org/2000/svg" xmlns:svg="http://www.w3.org/2000/svg" version="1.0">
 <metadata id="metadata10">image/svg+xmlen</metadata>

 <g class="layer">
  <title>Layer 1</title>
  <g id="g1327">
   <path d="m66.28,1.77c-41.34,0 -64.58,21.37 -64.58,65.03l0,450.13c0,40.84 20.9,62.23 62.2,62.23l452.02,0c41.31,0 62.23,-20.32 62.23,-62.23l0,-450.13c0,-42.6 -20.92,-65.03 -63.52,-65.03c-0.01,0 -448.5,-0.14 -448.36,0l0.01,0z" fill="#00007f" id="path1329" stroke="#eeeeee" stroke-width="3.41"/>
  </g>
  <path d="m468.23,77.93l-0.25,0c0.29,-0.25 0.45,-0.5 0.45,-0.75c0,-5.94 -81.07,-10.75 -181.07,-10.75c-100.01,0 -181.07,4.81 -181.07,10.75c0,0.25 0.15,0.5 0.44,0.75l-0.44,0l56.51,430.93l0.25,0c-0.5,0.27 -0.76,0.54 -0.76,0.82c0,4.1 55.99,7.42 125.07,7.42c69.07,0 125.07,-3.32 125.07,-7.42c0,-0.28 -0.27,-0.55 -0.77,-0.82l56.57,-430.93zm-92.85,399.42c-2.9,2.68 -174.6,1.43 -177.5,-1.25l-53.68,-340.26c95.08,65.91 157.61,-8.95 282.16,-2.51l-50.98,344.02z" fill="#ffffff" id="path2209"/>
  <path d="m129.31,119.26l310.08,2.51l-50.21,371.61l-212.17,2.51l-47.7,-376.63z" fill="#ffffff" fill-rule="evenodd" id="path2381" opacity="0.1" stroke-width="1px"/>
 </g>
</svg>