<?xml version="1.0"?>
<svg width="580" height="580" xmlns="http://www.w3.org/2000/svg" xmlns:svg="http://www.w3.org/2000/svg" version="1.0">
 <metadata id="metadata2975">image/svg+xmlen</metadata>

 <g class="layer">
  <title>Layer 1</title>
  <g id="g1327">
   <path d="m66.28,1.77c-41.34,0 -64.58,21.37 -64.58,65.03l0,450.13c0,40.84 20.9,62.23 62.2,62.23l452.02,0c41.31,0 62.23,-20.32 62.23,-62.23l0,-450.13c0,-42.6 -20.92,-65.03 -63.52,-65.03c-0.01,0 -448.5,-0.14 -448.36,0l0.01,0z" fill="#00007f" id="path1329" stroke="#eee" stroke-width="3.41"/>
  </g>
  <path d="m282.65,512.46l35.81,0l0,-451.29l-35.81,0l0,451.29zm-107.69,-368.86l-72.28,0c-11.27,0 -21.41,4.05 -30.41,12.16c-6.76,6.3 -11.26,13.28 -13.5,20.95l-31.09,103.35c-0.9,2.26 -1.34,4.28 -1.34,6.08c0,10.37 5.17,15.55 15.52,15.55c7.22,0 11.95,-4.05 14.21,-12.16l28.36,-94.59l15.53,0l-46.62,168.21l45.28,0l0,131.06c0,11.71 5.63,17.57 16.88,17.57c11.26,0 16.89,-5.86 16.89,-17.57l0,-131.72l16.91,0l0,132.4c0,11.26 5.62,16.89 16.88,16.89c11.26,0 16.89,-5.63 16.89,-16.89l0,-131.74l45.25,0l-47.27,-168.21l16.2,0l28.37,94.59c2.25,8.11 6.98,12.16 14.18,12.16c10.37,0 15.55,-5.18 15.55,-15.55c0,-2.25 -0.45,-4.28 -1.34,-6.08l-31.09,-103.35c-2.26,-7.22 -7.43,-14.2 -15.53,-20.95c-9.91,-8.11 -20.72,-12.16 -32.43,-12.16l0,0zm-34.45,-7.44c10.35,0 19.13,-3.6 26.34,-10.81c7.21,-7.2 10.81,-15.76 10.81,-25.67c0,-10.36 -3.6,-19.14 -10.81,-26.34c-7.21,-7.21 -15.99,-10.81 -26.34,-10.81c-9.91,0 -18.47,3.6 -25.68,10.81c-7.2,7.2 -10.81,15.98 -10.81,26.34c0,9.91 3.61,18.47 10.81,25.67c7.21,7.21 15.77,10.81 25.68,10.81l0,0zm316.02,-0.66c9.91,0 18.47,-3.61 25.68,-10.82c7.21,-7.21 10.81,-15.77 10.81,-25.68c0,-10.35 -3.6,-19.01 -10.81,-25.99c-7.21,-6.99 -15.77,-10.48 -25.68,-10.48c-9.91,0 -18.47,3.49 -25.67,10.48c-7.2,6.98 -10.8,15.64 -10.8,25.99c0,9.91 3.6,18.47 10.8,25.68c7.2,7.21 15.76,10.82 25.67,10.82l0,0zm47.97,7.42l-96.61,0c-13.06,0 -24.2,4.62 -33.44,13.85c-9.24,9.24 -13.85,20.61 -13.85,34.12l0,112.14c0,10.82 4.95,16.23 14.86,16.23c9.46,0 14.19,-5.41 14.19,-16.23l0,-109.43l17.56,0l0,297.25c0,13.51 6.76,20.27 20.27,20.27c13.51,0 20.26,-6.76 20.27,-20.27l0,-172.27l17.56,0l0,172.27c0,13.51 6.76,20.27 20.27,20.27c13.96,0 20.94,-6.76 20.94,-20.27l0,-297.25l16.89,0l0,109.43c0,11.26 4.73,16.89 14.18,16.89c9.47,0 14.21,-5.63 14.21,-16.89l0,-111.48c0,-13.05 -4.39,-24.42 -13.17,-34.11c-8.79,-9.68 -20.16,-14.52 -34.13,-14.52l0,0z" fill="#ffffff" id="flowRoot3192" stroke-width="1px"/>
 </g>
</svg>